<?xml version="1.0" encoding="utf-8" standalone="no"?>
<!DOCTYPE svg PUBLIC "-//W3C//DTD SVG 1.1//EN"
  "http://www.w3.org/Graphics/SVG/1.1/DTD/svg11.dtd">
<svg xmlns:xlink="http://www.w3.org/1999/xlink" width="650.4pt" height="584.819715pt" viewBox="0 0 650.4 584.819715" xmlns="http://www.w3.org/2000/svg" version="1.1">
 <metadata>
  <rdf:RDF xmlns:dc="http://purl.org/dc/elements/1.1/" xmlns:cc="http://creativecommons.org/ns#" xmlns:rdf="http://www.w3.org/1999/02/22-rdf-syntax-ns#">
   <cc:Work>
    <dc:type rdf:resource="http://purl.org/dc/dcmitype/StillImage"/>
    <dc:date>2026-05-30T06:25:50.505557</dc:date>
    <dc:format>image/svg+xml</dc:format>
    <dc:creator>
     <cc:Agent>
      <dc:title>Matplotlib v3.10.8, https://matplotlib.org/</dc:title>
     </cc:Agent>
    </dc:creator>
   </cc:Work>
  </rdf:RDF>
 </metadata>
 <defs>
  <style type="text/css">*{stroke-linejoin: round; stroke-linecap: butt}</style>
 </defs>
 <g id="figure_1">
  <g id="patch_1">
   <path d="M 0 584.819715 
L 650.4 584.819715 
L 650.4 0 
L 0 0 
z
" style="fill: #ffffff"/>
  </g>
  <g id="axes_1">
   <g id="patch_2">
    <path d="M 73.344 97.844473 
L 309.936 97.844473 
Q 313.752 97.844473 313.752 92.211104 
L 313.752 30.244047 
Q 313.752 24.610678 309.936 24.610678 
L 73.344 24.610678 
Q 69.528 24.610678 69.528 30.244047 
L 69.528 92.211104 
Q 69.528 97.844473 73.344 97.844473 
z
" clip-path="url(#pe8a146bb87)" style="fill: #185fa5; stroke: #185fa5; stroke-width: 1.3; stroke-linejoin: miter"/>
   </g>
   <g id="patch_3">
    <path d="M 191.64 97.96619 
Q 191.64 108.17213 191.64 117.03643 
" clip-path="url(#pe8a146bb87)" style="fill: none; stroke: #5b6b7a; stroke-width: 1.2; stroke-linecap: round"/>
    <path d="M 194.44 111.43643 
L 191.64 117.03643 
L 188.84 111.43643 
z
" clip-path="url(#pe8a146bb87)" style="fill: #5b6b7a; stroke: #5b6b7a; stroke-width: 1.2; stroke-linecap: round"/>
   </g>
   <g id="patch_4">
    <path d="M 73.344 191.733953 
L 309.936 191.733953 
Q 313.752 191.733953 313.752 186.100584 
L 313.752 124.133527 
Q 313.752 118.500158 309.936 118.500158 
L 73.344 118.500158 
Q 69.528 118.500158 69.528 124.133527 
L 69.528 186.100584 
Q 69.528 191.733953 73.344 191.733953 
z
" clip-path="url(#pe8a146bb87)" style="fill: #e6f1fb; stroke: #185fa5; stroke-width: 1.3; stroke-linejoin: miter"/>
   </g>
   <g id="patch_5">
    <path d="M 191.64 191.85567 
Q 191.64 202.06161 191.64 210.92591 
" clip-path="url(#pe8a146bb87)" style="fill: none; stroke: #5b6b7a; stroke-width: 1.2; stroke-linecap: round"/>
    <path d="M 194.44 205.32591 
L 191.64 210.92591 
L 188.84 205.32591 
z
" clip-path="url(#pe8a146bb87)" style="fill: #5b6b7a; stroke: #5b6b7a; stroke-width: 1.2; stroke-linecap: round"/>
   </g>
   <g id="patch_6">
    <path d="M 73.344 285.623433 
L 309.936 285.623433 
Q 313.752 285.623433 313.752 279.990064 
L 313.752 218.023007 
Q 313.752 212.389638 309.936 212.389638 
L 73.344 212.389638 
Q 69.528 212.389638 69.528 218.023007 
L 69.528 279.990064 
Q 69.528 285.623433 73.344 285.623433 
z
" clip-path="url(#pe8a146bb87)" style="fill: #e6f1fb; stroke: #185fa5; stroke-width: 1.3; stroke-linejoin: miter"/>
   </g>
   <g id="patch_7">
    <path d="M 191.64 285.74515 
Q 191.64 295.95109 191.64 304.81539 
" clip-path="url(#pe8a146bb87)" style="fill: none; stroke: #5b6b7a; stroke-width: 1.2; stroke-linecap: round"/>
    <path d="M 194.44 299.21539 
L 191.64 304.81539 
L 188.84 299.21539 
z
" clip-path="url(#pe8a146bb87)" style="fill: #5b6b7a; stroke: #5b6b7a; stroke-width: 1.2; stroke-linecap: round"/>
   </g>
   <g id="patch_8">
    <path d="M 343.008 279.051169 
L 606.312 279.051169 
Q 609.492 279.051169 609.492 274.356695 
L 609.492 223.656376 
Q 609.492 218.961902 606.312 218.961902 
L 343.008 218.961902 
Q 339.828 218.961902 339.828 223.656376 
L 339.828 274.356695 
Q 339.828 279.051169 343.008 279.051169 
z
" clip-path="url(#pe8a146bb87)" style="fill: #faeeda; stroke: #c8862a; stroke-linejoin: miter"/>
   </g>
   <g id="patch_9">
    <path d="M 314.481863 249.006535 
Q 326.791776 249.006535 337.983656 249.006535 
" clip-path="url(#pe8a146bb87)" style="fill: none; stroke: #c8862a; stroke-linecap: round"/>
    <path d="M 333.583656 246.806535 
L 337.983656 249.006535 
L 333.583656 251.206535 
z
" clip-path="url(#pe8a146bb87)" style="fill: #c8862a; stroke: #c8862a; stroke-linecap: round"/>
   </g>
   <g id="patch_10">
    <path d="M 73.344 379.512913 
L 309.936 379.512913 
Q 313.752 379.512913 313.752 373.879544 
L 313.752 311.912487 
Q 313.752 306.279118 309.936 306.279118 
L 73.344 306.279118 
Q 69.528 306.279118 69.528 311.912487 
L 69.528 373.879544 
Q 69.528 379.512913 73.344 379.512913 
z
" clip-path="url(#pe8a146bb87)" style="fill: #e6f1fb; stroke: #185fa5; stroke-width: 1.3; stroke-linejoin: miter"/>
   </g>
   <g id="patch_11">
    <path d="M 191.64 379.63463 
Q 191.64 389.84057 191.64 398.70487 
" clip-path="url(#pe8a146bb87)" style="fill: none; stroke: #5b6b7a; stroke-width: 1.2; stroke-linecap: round"/>
    <path d="M 194.44 393.10487 
L 191.64 398.70487 
L 188.84 393.10487 
z
" clip-path="url(#pe8a146bb87)" style="fill: #5b6b7a; stroke: #5b6b7a; stroke-width: 1.2; stroke-linecap: round"/>
   </g>
   <g id="patch_12">
    <path d="M 343.008 372.940649 
L 606.312 372.940649 
Q 609.492 372.940649 609.492 368.246175 
L 609.492 317.545856 
Q 609.492 312.851382 606.312 312.851382 
L 343.008 312.851382 
Q 339.828 312.851382 339.828 317.545856 
L 339.828 368.246175 
Q 339.828 372.940649 343.008 372.940649 
z
" clip-path="url(#pe8a146bb87)" style="fill: #faeeda; stroke: #c8862a; stroke-linejoin: miter"/>
   </g>
   <g id="patch_13">
    <path d="M 314.481863 342.896015 
Q 326.791776 342.896015 337.983656 342.896015 
" clip-path="url(#pe8a146bb87)" style="fill: none; stroke: #c8862a; stroke-linecap: round"/>
    <path d="M 333.583656 340.696015 
L 337.983656 342.896015 
L 333.583656 345.096015 
z
" clip-path="url(#pe8a146bb87)" style="fill: #c8862a; stroke: #c8862a; stroke-linecap: round"/>
   </g>
   <g id="patch_14">
    <path d="M 73.344 473.402393 
L 309.936 473.402393 
Q 313.752 473.402393 313.752 467.769024 
L 313.752 405.801967 
Q 313.752 400.168598 309.936 400.168598 
L 73.344 400.168598 
Q 69.528 400.168598 69.528 405.801967 
L 69.528 467.769024 
Q 69.528 473.402393 73.344 473.402393 
z
" clip-path="url(#pe8a146bb87)" style="fill: #e6f1fb; stroke: #185fa5; stroke-width: 1.3; stroke-linejoin: miter"/>
   </g>
   <g id="patch_15">
    <path d="M 191.64 473.52411 
Q 191.64 483.73005 191.64 492.59435 
" clip-path="url(#pe8a146bb87)" style="fill: none; stroke: #5b6b7a; stroke-width: 1.2; stroke-linecap: round"/>
    <path d="M 194.44 486.99435 
L 191.64 492.59435 
L 188.84 486.99435 
z
" clip-path="url(#pe8a146bb87)" style="fill: #5b6b7a; stroke: #5b6b7a; stroke-width: 1.2; stroke-linecap: round"/>
   </g>
   <g id="patch_16">
    <path d="M 73.344 567.291873 
L 309.936 567.291873 
Q 313.752 567.291873 313.752 561.658504 
L 313.752 499.691447 
Q 313.752 494.058078 309.936 494.058078 
L 73.344 494.058078 
Q 69.528 494.058078 69.528 499.691447 
L 69.528 561.658504 
Q 69.528 567.291873 73.344 567.291873 
z
" clip-path="url(#pe8a146bb87)" style="fill: #0f6e56; stroke: #0f6e56; stroke-width: 1.3; stroke-linejoin: miter"/>
   </g>
   <g id="text_1">
    <!-- Raw dataset -->
    <g style="fill: #ffffff" transform="translate(156.581406 52.720213) scale(0.1 -0.1)">
     <defs>
      <path id="DejaVuSans-Bold-52" d="M 2297 2597 
Q 2675 2597 2839 2737 
Q 3003 2878 3003 3200 
Q 3003 3519 2839 3656 
Q 2675 3794 2297 3794 
L 1791 3794 
L 1791 2597 
L 2297 2597 
z
M 1791 1766 
L 1791 0 
L 588 0 
L 588 4666 
L 2425 4666 
Q 3347 4666 3776 4356 
Q 4206 4047 4206 3378 
Q 4206 2916 3982 2619 
Q 3759 2322 3309 2181 
Q 3556 2125 3751 1926 
Q 3947 1728 4147 1325 
L 4800 0 
L 3519 0 
L 2950 1159 
Q 2778 1509 2601 1637 
Q 2425 1766 2131 1766 
L 1791 1766 
z
" transform="scale(0.015625)"/>
      <path id="DejaVuSans-Bold-61" d="M 2106 1575 
Q 1756 1575 1579 1456 
Q 1403 1338 1403 1106 
Q 1403 894 1545 773 
Q 1688 653 1941 653 
Q 2256 653 2472 879 
Q 2688 1106 2688 1447 
L 2688 1575 
L 2106 1575 
z
M 3816 1997 
L 3816 0 
L 2688 0 
L 2688 519 
Q 2463 200 2181 54 
Q 1900 -91 1497 -91 
Q 953 -91 614 226 
Q 275 544 275 1050 
Q 275 1666 698 1953 
Q 1122 2241 2028 2241 
L 2688 2241 
L 2688 2328 
Q 2688 2594 2478 2717 
Q 2269 2841 1825 2841 
Q 1466 2841 1156 2769 
Q 847 2697 581 2553 
L 581 3406 
Q 941 3494 1303 3539 
Q 1666 3584 2028 3584 
Q 2975 3584 3395 3211 
Q 3816 2838 3816 1997 
z
" transform="scale(0.015625)"/>
      <path id="DejaVuSans-Bold-77" d="M 225 3500 
L 1313 3500 
L 1900 1088 
L 2491 3500 
L 3425 3500 
L 4013 1113 
L 4603 3500 
L 5691 3500 
L 4769 0 
L 3547 0 
L 2956 2406 
L 2369 0 
L 1147 0 
L 225 3500 
z
" transform="scale(0.015625)"/>
      <path id="DejaVuSans-Bold-20" transform="scale(0.015625)"/>
      <path id="DejaVuSans-Bold-64" d="M 2919 2988 
L 2919 4863 
L 4044 4863 
L 4044 0 
L 2919 0 
L 2919 506 
Q 2688 197 2409 53 
Q 2131 -91 1766 -91 
Q 1119 -91 703 423 
Q 288 938 288 1747 
Q 288 2556 703 3070 
Q 1119 3584 1766 3584 
Q 2128 3584 2408 3439 
Q 2688 3294 2919 2988 
z
M 2181 722 
Q 2541 722 2730 984 
Q 2919 1247 2919 1747 
Q 2919 2247 2730 2509 
Q 2541 2772 2181 2772 
Q 1825 2772 1636 2509 
Q 1447 2247 1447 1747 
Q 1447 1247 1636 984 
Q 1825 722 2181 722 
z
" transform="scale(0.015625)"/>
      <path id="DejaVuSans-Bold-74" d="M 1759 4494 
L 1759 3500 
L 2913 3500 
L 2913 2700 
L 1759 2700 
L 1759 1216 
Q 1759 972 1856 886 
Q 1953 800 2241 800 
L 2816 800 
L 2816 0 
L 1856 0 
Q 1194 0 917 276 
Q 641 553 641 1216 
L 641 2700 
L 84 2700 
L 84 3500 
L 641 3500 
L 641 4494 
L 1759 4494 
z
" transform="scale(0.015625)"/>
      <path id="DejaVuSans-Bold-73" d="M 3272 3391 
L 3272 2541 
Q 2913 2691 2578 2766 
Q 2244 2841 1947 2841 
Q 1628 2841 1473 2761 
Q 1319 2681 1319 2516 
Q 1319 2381 1436 2309 
Q 1553 2238 1856 2203 
L 2053 2175 
Q 2913 2066 3209 1816 
Q 3506 1566 3506 1031 
Q 3506 472 3093 190 
Q 2681 -91 1863 -91 
Q 1516 -91 1145 -36 
Q 775 19 384 128 
L 384 978 
Q 719 816 1070 734 
Q 1422 653 1784 653 
Q 2113 653 2278 743 
Q 2444 834 2444 1013 
Q 2444 1163 2330 1236 
Q 2216 1309 1875 1350 
L 1678 1375 
Q 931 1469 631 1722 
Q 331 1975 331 2491 
Q 331 3047 712 3315 
Q 1094 3584 1881 3584 
Q 2191 3584 2531 3537 
Q 2872 3491 3272 3391 
z
" transform="scale(0.015625)"/>
      <path id="DejaVuSans-Bold-65" d="M 4031 1759 
L 4031 1441 
L 1416 1441 
Q 1456 1047 1700 850 
Q 1944 653 2381 653 
Q 2734 653 3104 758 
Q 3475 863 3866 1075 
L 3866 213 
Q 3469 63 3072 -14 
Q 2675 -91 2278 -91 
Q 1328 -91 801 392 
Q 275 875 275 1747 
Q 275 2603 792 3093 
Q 1309 3584 2216 3584 
Q 3041 3584 3536 3087 
Q 4031 2591 4031 1759 
z
M 2881 2131 
Q 2881 2450 2695 2645 
Q 2509 2841 2209 2841 
Q 1884 2841 1681 2658 
Q 1478 2475 1428 2131 
L 2881 2131 
z
" transform="scale(0.015625)"/>
     </defs>
     <use xlink:href="#DejaVuSans-Bold-52"/>
     <use xlink:href="#DejaVuSans-Bold-61" transform="translate(77.001953 0)"/>
     <use xlink:href="#DejaVuSans-Bold-77" transform="translate(144.482422 0)"/>
     <use xlink:href="#DejaVuSans-Bold-20" transform="translate(236.865234 0)"/>
     <use xlink:href="#DejaVuSans-Bold-64" transform="translate(271.679688 0)"/>
     <use xlink:href="#DejaVuSans-Bold-61" transform="translate(343.261719 0)"/>
     <use xlink:href="#DejaVuSans-Bold-74" transform="translate(410.742188 0)"/>
     <use xlink:href="#DejaVuSans-Bold-61" transform="translate(458.544922 0)"/>
     <use xlink:href="#DejaVuSans-Bold-73" transform="translate(526.025391 0)"/>
     <use xlink:href="#DejaVuSans-Bold-65" transform="translate(585.546875 0)"/>
     <use xlink:href="#DejaVuSans-Bold-74" transform="translate(653.369141 0)"/>
    </g>
   </g>
   <g id="text_2">
    <!-- 6,000 rows  ×  15 cols -->
    <g style="fill: #ffffff" transform="translate(144.125664 78.595361) scale(0.085 -0.085)">
     <defs>
      <path id="DejaVuSans-36" d="M 2113 2584 
Q 1688 2584 1439 2293 
Q 1191 2003 1191 1497 
Q 1191 994 1439 701 
Q 1688 409 2113 409 
Q 2538 409 2786 701 
Q 3034 994 3034 1497 
Q 3034 2003 2786 2293 
Q 2538 2584 2113 2584 
z
M 3366 4563 
L 3366 3988 
Q 3128 4100 2886 4159 
Q 2644 4219 2406 4219 
Q 1781 4219 1451 3797 
Q 1122 3375 1075 2522 
Q 1259 2794 1537 2939 
Q 1816 3084 2150 3084 
Q 2853 3084 3261 2657 
Q 3669 2231 3669 1497 
Q 3669 778 3244 343 
Q 2819 -91 2113 -91 
Q 1303 -91 875 529 
Q 447 1150 447 2328 
Q 447 3434 972 4092 
Q 1497 4750 2381 4750 
Q 2619 4750 2861 4703 
Q 3103 4656 3366 4563 
z
" transform="scale(0.015625)"/>
      <path id="DejaVuSans-2c" d="M 750 794 
L 1409 794 
L 1409 256 
L 897 -744 
L 494 -744 
L 750 256 
L 750 794 
z
" transform="scale(0.015625)"/>
      <path id="DejaVuSans-30" d="M 2034 4250 
Q 1547 4250 1301 3770 
Q 1056 3291 1056 2328 
Q 1056 1369 1301 889 
Q 1547 409 2034 409 
Q 2525 409 2770 889 
Q 3016 1369 3016 2328 
Q 3016 3291 2770 3770 
Q 2525 4250 2034 4250 
z
M 2034 4750 
Q 2819 4750 3233 4129 
Q 3647 3509 3647 2328 
Q 3647 1150 3233 529 
Q 2819 -91 2034 -91 
Q 1250 -91 836 529 
Q 422 1150 422 2328 
Q 422 3509 836 4129 
Q 1250 4750 2034 4750 
z
" transform="scale(0.015625)"/>
      <path id="DejaVuSans-20" transform="scale(0.015625)"/>
      <path id="DejaVuSans-72" d="M 2631 2963 
Q 2534 3019 2420 3045 
Q 2306 3072 2169 3072 
Q 1681 3072 1420 2755 
Q 1159 2438 1159 1844 
L 1159 0 
L 581 0 
L 581 3500 
L 1159 3500 
L 1159 2956 
Q 1341 3275 1631 3429 
Q 1922 3584 2338 3584 
Q 2397 3584 2469 3576 
Q 2541 3569 2628 3553 
L 2631 2963 
z
" transform="scale(0.015625)"/>
      <path id="DejaVuSans-6f" d="M 1959 3097 
Q 1497 3097 1228 2736 
Q 959 2375 959 1747 
Q 959 1119 1226 758 
Q 1494 397 1959 397 
Q 2419 397 2687 759 
Q 2956 1122 2956 1747 
Q 2956 2369 2687 2733 
Q 2419 3097 1959 3097 
z
M 1959 3584 
Q 2709 3584 3137 3096 
Q 3566 2609 3566 1747 
Q 3566 888 3137 398 
Q 2709 -91 1959 -91 
Q 1206 -91 779 398 
Q 353 888 353 1747 
Q 353 2609 779 3096 
Q 1206 3584 1959 3584 
z
" transform="scale(0.015625)"/>
      <path id="DejaVuSans-77" d="M 269 3500 
L 844 3500 
L 1563 769 
L 2278 3500 
L 2956 3500 
L 3675 769 
L 4391 3500 
L 4966 3500 
L 4050 0 
L 3372 0 
L 2619 2869 
L 1863 0 
L 1184 0 
L 269 3500 
z
" transform="scale(0.015625)"/>
      <path id="DejaVuSans-73" d="M 2834 3397 
L 2834 2853 
Q 2591 2978 2328 3040 
Q 2066 3103 1784 3103 
Q 1356 3103 1142 2972 
Q 928 2841 928 2578 
Q 928 2378 1081 2264 
Q 1234 2150 1697 2047 
L 1894 2003 
Q 2506 1872 2764 1633 
Q 3022 1394 3022 966 
Q 3022 478 2636 193 
Q 2250 -91 1575 -91 
Q 1294 -91 989 -36 
Q 684 19 347 128 
L 347 722 
Q 666 556 975 473 
Q 1284 391 1588 391 
Q 1994 391 2212 530 
Q 2431 669 2431 922 
Q 2431 1156 2273 1281 
Q 2116 1406 1581 1522 
L 1381 1569 
Q 847 1681 609 1914 
Q 372 2147 372 2553 
Q 372 3047 722 3315 
Q 1072 3584 1716 3584 
Q 2034 3584 2315 3537 
Q 2597 3491 2834 3397 
z
" transform="scale(0.015625)"/>
      <path id="DejaVuSans-d7" d="M 4488 3438 
L 3059 2003 
L 4488 575 
L 4116 197 
L 2681 1631 
L 1247 197 
L 878 575 
L 2303 2003 
L 878 3438 
L 1247 3816 
L 2681 2381 
L 4116 3816 
L 4488 3438 
z
" transform="scale(0.015625)"/>
      <path id="DejaVuSans-31" d="M 794 531 
L 1825 531 
L 1825 4091 
L 703 3866 
L 703 4441 
L 1819 4666 
L 2450 4666 
L 2450 531 
L 3481 531 
L 3481 0 
L 794 0 
L 794 531 
z
" transform="scale(0.015625)"/>
      <path id="DejaVuSans-35" d="M 691 4666 
L 3169 4666 
L 3169 4134 
L 1269 4134 
L 1269 2991 
Q 1406 3038 1543 3061 
Q 1681 3084 1819 3084 
Q 2600 3084 3056 2656 
Q 3513 2228 3513 1497 
Q 3513 744 3044 326 
Q 2575 -91 1722 -91 
Q 1428 -91 1123 -41 
Q 819 9 494 109 
L 494 744 
Q 775 591 1075 516 
Q 1375 441 1709 441 
Q 2250 441 2565 725 
Q 2881 1009 2881 1497 
Q 2881 1984 2565 2268 
Q 2250 2553 1709 2553 
Q 1456 2553 1204 2497 
Q 953 2441 691 2322 
L 691 4666 
z
" transform="scale(0.015625)"/>
      <path id="DejaVuSans-63" d="M 3122 3366 
L 3122 2828 
Q 2878 2963 2633 3030 
Q 2388 3097 2138 3097 
Q 1578 3097 1268 2742 
Q 959 2388 959 1747 
Q 959 1106 1268 751 
Q 1578 397 2138 397 
Q 2388 397 2633 464 
Q 2878 531 3122 666 
L 3122 134 
Q 2881 22 2623 -34 
Q 2366 -91 2075 -91 
Q 1284 -91 818 406 
Q 353 903 353 1747 
Q 353 2603 823 3093 
Q 1294 3584 2113 3584 
Q 2378 3584 2631 3529 
Q 2884 3475 3122 3366 
z
" transform="scale(0.015625)"/>
      <path id="DejaVuSans-6c" d="M 603 4863 
L 1178 4863 
L 1178 0 
L 603 0 
L 603 4863 
z
" transform="scale(0.015625)"/>
     </defs>
     <use xlink:href="#DejaVuSans-36"/>
     <use xlink:href="#DejaVuSans-2c" transform="translate(63.623047 0)"/>
     <use xlink:href="#DejaVuSans-30" transform="translate(95.410156 0)"/>
     <use xlink:href="#DejaVuSans-30" transform="translate(159.033203 0)"/>
     <use xlink:href="#DejaVuSans-30" transform="translate(222.65625 0)"/>
     <use xlink:href="#DejaVuSans-20" transform="translate(286.279297 0)"/>
     <use xlink:href="#DejaVuSans-72" transform="translate(318.066406 0)"/>
     <use xlink:href="#DejaVuSans-6f" transform="translate(356.929688 0)"/>
     <use xlink:href="#DejaVuSans-77" transform="translate(418.111328 0)"/>
     <use xlink:href="#DejaVuSans-73" transform="translate(499.898438 0)"/>
     <use xlink:href="#DejaVuSans-20" transform="translate(551.998047 0)"/>
     <use xlink:href="#DejaVuSans-20" transform="translate(583.785156 0)"/>
     <use xlink:href="#DejaVuSans-d7" transform="translate(615.572266 0)"/>
     <use xlink:href="#DejaVuSans-20" transform="translate(699.361328 0)"/>
     <use xlink:href="#DejaVuSans-20" transform="translate(731.148438 0)"/>
     <use xlink:href="#DejaVuSans-31" transform="translate(762.935547 0)"/>
     <use xlink:href="#DejaVuSans-35" transform="translate(826.558594 0)"/>
     <use xlink:href="#DejaVuSans-20" transform="translate(890.181641 0)"/>
     <use xlink:href="#DejaVuSans-63" transform="translate(921.96875 0)"/>
     <use xlink:href="#DejaVuSans-6f" transform="translate(976.949219 0)"/>
     <use xlink:href="#DejaVuSans-6c" transform="translate(1038.130859 0)"/>
     <use xlink:href="#DejaVuSans-73" transform="translate(1065.914062 0)"/>
    </g>
   </g>
   <g id="text_3">
    <!-- Companion matching -->
    <g style="fill: #1a1a1a" transform="translate(132.013437 146.57063) scale(0.1 -0.1)">
     <defs>
      <path id="DejaVuSans-Bold-43" d="M 4288 256 
Q 3956 84 3597 -3 
Q 3238 -91 2847 -91 
Q 1681 -91 1000 561 
Q 319 1213 319 2328 
Q 319 3447 1000 4098 
Q 1681 4750 2847 4750 
Q 3238 4750 3597 4662 
Q 3956 4575 4288 4403 
L 4288 3438 
Q 3953 3666 3628 3772 
Q 3303 3878 2944 3878 
Q 2300 3878 1931 3465 
Q 1563 3053 1563 2328 
Q 1563 1606 1931 1193 
Q 2300 781 2944 781 
Q 3303 781 3628 887 
Q 3953 994 4288 1222 
L 4288 256 
z
" transform="scale(0.015625)"/>
      <path id="DejaVuSans-Bold-6f" d="M 2203 2784 
Q 1831 2784 1636 2517 
Q 1441 2250 1441 1747 
Q 1441 1244 1636 976 
Q 1831 709 2203 709 
Q 2569 709 2762 976 
Q 2956 1244 2956 1747 
Q 2956 2250 2762 2517 
Q 2569 2784 2203 2784 
z
M 2203 3584 
Q 3106 3584 3614 3096 
Q 4122 2609 4122 1747 
Q 4122 884 3614 396 
Q 3106 -91 2203 -91 
Q 1297 -91 786 396 
Q 275 884 275 1747 
Q 275 2609 786 3096 
Q 1297 3584 2203 3584 
z
" transform="scale(0.015625)"/>
      <path id="DejaVuSans-Bold-6d" d="M 3781 2919 
Q 3994 3244 4286 3414 
Q 4578 3584 4928 3584 
Q 5531 3584 5847 3212 
Q 6163 2841 6163 2131 
L 6163 0 
L 5038 0 
L 5038 1825 
Q 5041 1866 5042 1909 
Q 5044 1953 5044 2034 
Q 5044 2406 4934 2573 
Q 4825 2741 4581 2741 
Q 4263 2741 4089 2478 
Q 3916 2216 3909 1719 
L 3909 0 
L 2784 0 
L 2784 1825 
Q 2784 2406 2684 2573 
Q 2584 2741 2328 2741 
Q 2006 2741 1831 2477 
Q 1656 2213 1656 1722 
L 1656 0 
L 531 0 
L 531 3500 
L 1656 3500 
L 1656 2988 
Q 1863 3284 2130 3434 
Q 2397 3584 2719 3584 
Q 3081 3584 3359 3409 
Q 3638 3234 3781 2919 
z
" transform="scale(0.015625)"/>
      <path id="DejaVuSans-Bold-70" d="M 1656 506 
L 1656 -1331 
L 538 -1331 
L 538 3500 
L 1656 3500 
L 1656 2988 
Q 1888 3294 2169 3439 
Q 2450 3584 2816 3584 
Q 3463 3584 3878 3070 
Q 4294 2556 4294 1747 
Q 4294 938 3878 423 
Q 3463 -91 2816 -91 
Q 2450 -91 2169 54 
Q 1888 200 1656 506 
z
M 2400 2772 
Q 2041 2772 1848 2508 
Q 1656 2244 1656 1747 
Q 1656 1250 1848 986 
Q 2041 722 2400 722 
Q 2759 722 2948 984 
Q 3138 1247 3138 1747 
Q 3138 2247 2948 2509 
Q 2759 2772 2400 2772 
z
" transform="scale(0.015625)"/>
      <path id="DejaVuSans-Bold-6e" d="M 4056 2131 
L 4056 0 
L 2931 0 
L 2931 347 
L 2931 1631 
Q 2931 2084 2911 2256 
Q 2891 2428 2841 2509 
Q 2775 2619 2662 2680 
Q 2550 2741 2406 2741 
Q 2056 2741 1856 2470 
Q 1656 2200 1656 1722 
L 1656 0 
L 538 0 
L 538 3500 
L 1656 3500 
L 1656 2988 
Q 1909 3294 2193 3439 
Q 2478 3584 2822 3584 
Q 3428 3584 3742 3212 
Q 4056 2841 4056 2131 
z
" transform="scale(0.015625)"/>
      <path id="DejaVuSans-Bold-69" d="M 538 3500 
L 1656 3500 
L 1656 0 
L 538 0 
L 538 3500 
z
M 538 4863 
L 1656 4863 
L 1656 3950 
L 538 3950 
L 538 4863 
z
" transform="scale(0.015625)"/>
      <path id="DejaVuSans-Bold-63" d="M 3366 3391 
L 3366 2478 
Q 3138 2634 2908 2709 
Q 2678 2784 2431 2784 
Q 1963 2784 1702 2511 
Q 1441 2238 1441 1747 
Q 1441 1256 1702 982 
Q 1963 709 2431 709 
Q 2694 709 2930 787 
Q 3166 866 3366 1019 
L 3366 103 
Q 3103 6 2833 -42 
Q 2563 -91 2291 -91 
Q 1344 -91 809 395 
Q 275 881 275 1747 
Q 275 2613 809 3098 
Q 1344 3584 2291 3584 
Q 2566 3584 2833 3536 
Q 3100 3488 3366 3391 
z
" transform="scale(0.015625)"/>
      <path id="DejaVuSans-Bold-68" d="M 4056 2131 
L 4056 0 
L 2931 0 
L 2931 347 
L 2931 1625 
Q 2931 2084 2911 2256 
Q 2891 2428 2841 2509 
Q 2775 2619 2662 2680 
Q 2550 2741 2406 2741 
Q 2056 2741 1856 2470 
Q 1656 2200 1656 1722 
L 1656 0 
L 538 0 
L 538 4863 
L 1656 4863 
L 1656 2988 
Q 1909 3294 2193 3439 
Q 2478 3584 2822 3584 
Q 3428 3584 3742 3212 
Q 4056 2841 4056 2131 
z
" transform="scale(0.015625)"/>
      <path id="DejaVuSans-Bold-67" d="M 2919 594 
Q 2688 288 2409 144 
Q 2131 0 1766 0 
Q 1125 0 706 504 
Q 288 1009 288 1791 
Q 288 2575 706 3076 
Q 1125 3578 1766 3578 
Q 2131 3578 2409 3434 
Q 2688 3291 2919 2981 
L 2919 3500 
L 4044 3500 
L 4044 353 
Q 4044 -491 3511 -936 
Q 2978 -1381 1966 -1381 
Q 1638 -1381 1331 -1331 
Q 1025 -1281 716 -1178 
L 716 -306 
Q 1009 -475 1290 -558 
Q 1572 -641 1856 -641 
Q 2406 -641 2662 -400 
Q 2919 -159 2919 353 
L 2919 594 
z
M 2181 2772 
Q 1834 2772 1640 2515 
Q 1447 2259 1447 1791 
Q 1447 1309 1634 1061 
Q 1822 813 2181 813 
Q 2531 813 2725 1069 
Q 2919 1325 2919 1791 
Q 2919 2259 2725 2515 
Q 2531 2772 2181 2772 
z
" transform="scale(0.015625)"/>
     </defs>
     <use xlink:href="#DejaVuSans-Bold-43"/>
     <use xlink:href="#DejaVuSans-Bold-6f" transform="translate(73.388672 0)"/>
     <use xlink:href="#DejaVuSans-Bold-6d" transform="translate(142.089844 0)"/>
     <use xlink:href="#DejaVuSans-Bold-70" transform="translate(246.289062 0)"/>
     <use xlink:href="#DejaVuSans-Bold-61" transform="translate(317.871094 0)"/>
     <use xlink:href="#DejaVuSans-Bold-6e" transform="translate(385.351562 0)"/>
     <use xlink:href="#DejaVuSans-Bold-69" transform="translate(456.542969 0)"/>
     <use xlink:href="#DejaVuSans-Bold-6f" transform="translate(490.820312 0)"/>
     <use xlink:href="#DejaVuSans-Bold-6e" transform="translate(559.521484 0)"/>
     <use xlink:href="#DejaVuSans-Bold-20" transform="translate(630.712891 0)"/>
     <use xlink:href="#DejaVuSans-Bold-6d" transform="translate(665.527344 0)"/>
     <use xlink:href="#DejaVuSans-Bold-61" transform="translate(769.726562 0)"/>
     <use xlink:href="#DejaVuSans-Bold-74" transform="translate(837.207031 0)"/>
     <use xlink:href="#DejaVuSans-Bold-63" transform="translate(885.009766 0)"/>
     <use xlink:href="#DejaVuSans-Bold-68" transform="translate(944.287109 0)"/>
     <use xlink:href="#DejaVuSans-Bold-69" transform="translate(1015.478516 0)"/>
     <use xlink:href="#DejaVuSans-Bold-6e" transform="translate(1049.755859 0)"/>
     <use xlink:href="#DejaVuSans-Bold-67" transform="translate(1120.947266 0)"/>
    </g>
   </g>
   <g id="text_4">
    <!-- 6,000 rows  ×  15 cols -->
    <g style="fill: #1a1a1a" transform="translate(144.125664 172.484841) scale(0.085 -0.085)">
     <use xlink:href="#DejaVuSans-36"/>
     <use xlink:href="#DejaVuSans-2c" transform="translate(63.623047 0)"/>
     <use xlink:href="#DejaVuSans-30" transform="translate(95.410156 0)"/>
     <use xlink:href="#DejaVuSans-30" transform="translate(159.033203 0)"/>
     <use xlink:href="#DejaVuSans-30" transform="translate(222.65625 0)"/>
     <use xlink:href="#DejaVuSans-20" transform="translate(286.279297 0)"/>
     <use xlink:href="#DejaVuSans-72" transform="translate(318.066406 0)"/>
     <use xlink:href="#DejaVuSans-6f" transform="translate(356.929688 0)"/>
     <use xlink:href="#DejaVuSans-77" transform="translate(418.111328 0)"/>
     <use xlink:href="#DejaVuSans-73" transform="translate(499.898438 0)"/>
     <use xlink:href="#DejaVuSans-20" transform="translate(551.998047 0)"/>
     <use xlink:href="#DejaVuSans-20" transform="translate(583.785156 0)"/>
     <use xlink:href="#DejaVuSans-d7" transform="translate(615.572266 0)"/>
     <use xlink:href="#DejaVuSans-20" transform="translate(699.361328 0)"/>
     <use xlink:href="#DejaVuSans-20" transform="translate(731.148438 0)"/>
     <use xlink:href="#DejaVuSans-31" transform="translate(762.935547 0)"/>
     <use xlink:href="#DejaVuSans-35" transform="translate(826.558594 0)"/>
     <use xlink:href="#DejaVuSans-20" transform="translate(890.181641 0)"/>
     <use xlink:href="#DejaVuSans-63" transform="translate(921.96875 0)"/>
     <use xlink:href="#DejaVuSans-6f" transform="translate(976.949219 0)"/>
     <use xlink:href="#DejaVuSans-6c" transform="translate(1038.130859 0)"/>
     <use xlink:href="#DejaVuSans-73" transform="translate(1065.914062 0)"/>
    </g>
   </g>
   <g id="text_5">
    <!-- Duplicate detection -->
    <g style="fill: #1a1a1a" transform="translate(136.248594 240.499173) scale(0.1 -0.1)">
     <defs>
      <path id="DejaVuSans-Bold-44" d="M 1791 3756 
L 1791 909 
L 2222 909 
Q 2959 909 3348 1275 
Q 3738 1641 3738 2338 
Q 3738 3031 3350 3393 
Q 2963 3756 2222 3756 
L 1791 3756 
z
M 588 4666 
L 1856 4666 
Q 2919 4666 3439 4514 
Q 3959 4363 4331 4000 
Q 4659 3684 4818 3271 
Q 4978 2859 4978 2338 
Q 4978 1809 4818 1395 
Q 4659 981 4331 666 
Q 3956 303 3431 151 
Q 2906 0 1856 0 
L 588 0 
L 588 4666 
z
" transform="scale(0.015625)"/>
      <path id="DejaVuSans-Bold-75" d="M 500 1363 
L 500 3500 
L 1625 3500 
L 1625 3150 
Q 1625 2866 1622 2436 
Q 1619 2006 1619 1863 
Q 1619 1441 1641 1255 
Q 1663 1069 1716 984 
Q 1784 875 1895 815 
Q 2006 756 2150 756 
Q 2500 756 2700 1025 
Q 2900 1294 2900 1772 
L 2900 3500 
L 4019 3500 
L 4019 0 
L 2900 0 
L 2900 506 
Q 2647 200 2364 54 
Q 2081 -91 1741 -91 
Q 1134 -91 817 281 
Q 500 653 500 1363 
z
" transform="scale(0.015625)"/>
      <path id="DejaVuSans-Bold-6c" d="M 538 4863 
L 1656 4863 
L 1656 0 
L 538 0 
L 538 4863 
z
" transform="scale(0.015625)"/>
     </defs>
     <use xlink:href="#DejaVuSans-Bold-44"/>
     <use xlink:href="#DejaVuSans-Bold-75" transform="translate(83.007812 0)"/>
     <use xlink:href="#DejaVuSans-Bold-70" transform="translate(154.199219 0)"/>
     <use xlink:href="#DejaVuSans-Bold-6c" transform="translate(225.78125 0)"/>
     <use xlink:href="#DejaVuSans-Bold-69" transform="translate(260.058594 0)"/>
     <use xlink:href="#DejaVuSans-Bold-63" transform="translate(294.335938 0)"/>
     <use xlink:href="#DejaVuSans-Bold-61" transform="translate(353.613281 0)"/>
     <use xlink:href="#DejaVuSans-Bold-74" transform="translate(421.09375 0)"/>
     <use xlink:href="#DejaVuSans-Bold-65" transform="translate(468.896484 0)"/>
     <use xlink:href="#DejaVuSans-Bold-20" transform="translate(536.71875 0)"/>
     <use xlink:href="#DejaVuSans-Bold-64" transform="translate(571.533203 0)"/>
     <use xlink:href="#DejaVuSans-Bold-65" transform="translate(643.115234 0)"/>
     <use xlink:href="#DejaVuSans-Bold-74" transform="translate(710.9375 0)"/>
     <use xlink:href="#DejaVuSans-Bold-65" transform="translate(758.740234 0)"/>
     <use xlink:href="#DejaVuSans-Bold-63" transform="translate(826.5625 0)"/>
     <use xlink:href="#DejaVuSans-Bold-74" transform="translate(885.839844 0)"/>
     <use xlink:href="#DejaVuSans-Bold-69" transform="translate(933.642578 0)"/>
     <use xlink:href="#DejaVuSans-Bold-6f" transform="translate(967.919922 0)"/>
     <use xlink:href="#DejaVuSans-Bold-6e" transform="translate(1036.621094 0)"/>
    </g>
   </g>
   <g id="text_6">
    <!-- 5,976 rows  ×  15 cols -->
    <g style="fill: #1a1a1a" transform="translate(144.125664 266.374321) scale(0.085 -0.085)">
     <defs>
      <path id="DejaVuSans-39" d="M 703 97 
L 703 672 
Q 941 559 1184 500 
Q 1428 441 1663 441 
Q 2288 441 2617 861 
Q 2947 1281 2994 2138 
Q 2813 1869 2534 1725 
Q 2256 1581 1919 1581 
Q 1219 1581 811 2004 
Q 403 2428 403 3163 
Q 403 3881 828 4315 
Q 1253 4750 1959 4750 
Q 2769 4750 3195 4129 
Q 3622 3509 3622 2328 
Q 3622 1225 3098 567 
Q 2575 -91 1691 -91 
Q 1453 -91 1209 -44 
Q 966 3 703 97 
z
M 1959 2075 
Q 2384 2075 2632 2365 
Q 2881 2656 2881 3163 
Q 2881 3666 2632 3958 
Q 2384 4250 1959 4250 
Q 1534 4250 1286 3958 
Q 1038 3666 1038 3163 
Q 1038 2656 1286 2365 
Q 1534 2075 1959 2075 
z
" transform="scale(0.015625)"/>
      <path id="DejaVuSans-37" d="M 525 4666 
L 3525 4666 
L 3525 4397 
L 1831 0 
L 1172 0 
L 2766 4134 
L 525 4134 
L 525 4666 
z
" transform="scale(0.015625)"/>
     </defs>
     <use xlink:href="#DejaVuSans-35"/>
     <use xlink:href="#DejaVuSans-2c" transform="translate(63.623047 0)"/>
     <use xlink:href="#DejaVuSans-39" transform="translate(95.410156 0)"/>
     <use xlink:href="#DejaVuSans-37" transform="translate(159.033203 0)"/>
     <use xlink:href="#DejaVuSans-36" transform="translate(222.65625 0)"/>
     <use xlink:href="#DejaVuSans-20" transform="translate(286.279297 0)"/>
     <use xlink:href="#DejaVuSans-72" transform="translate(318.066406 0)"/>
     <use xlink:href="#DejaVuSans-6f" transform="translate(356.929688 0)"/>
     <use xlink:href="#DejaVuSans-77" transform="translate(418.111328 0)"/>
     <use xlink:href="#DejaVuSans-73" transform="translate(499.898438 0)"/>
     <use xlink:href="#DejaVuSans-20" transform="translate(551.998047 0)"/>
     <use xlink:href="#DejaVuSans-20" transform="translate(583.785156 0)"/>
     <use xlink:href="#DejaVuSans-d7" transform="translate(615.572266 0)"/>
     <use xlink:href="#DejaVuSans-20" transform="translate(699.361328 0)"/>
     <use xlink:href="#DejaVuSans-20" transform="translate(731.148438 0)"/>
     <use xlink:href="#DejaVuSans-31" transform="translate(762.935547 0)"/>
     <use xlink:href="#DejaVuSans-35" transform="translate(826.558594 0)"/>
     <use xlink:href="#DejaVuSans-20" transform="translate(890.181641 0)"/>
     <use xlink:href="#DejaVuSans-63" transform="translate(921.96875 0)"/>
     <use xlink:href="#DejaVuSans-6f" transform="translate(976.949219 0)"/>
     <use xlink:href="#DejaVuSans-6c" transform="translate(1038.130859 0)"/>
     <use xlink:href="#DejaVuSans-73" transform="translate(1065.914062 0)"/>
    </g>
   </g>
   <g id="text_7">
    <!-- −24 rows -->
    <g style="fill: #5a3d10" transform="translate(457.497 246.414985) scale(0.072 -0.072)">
     <defs>
      <path id="DejaVuSans-2212" d="M 678 2272 
L 4684 2272 
L 4684 1741 
L 678 1741 
L 678 2272 
z
" transform="scale(0.015625)"/>
      <path id="DejaVuSans-32" d="M 1228 531 
L 3431 531 
L 3431 0 
L 469 0 
L 469 531 
Q 828 903 1448 1529 
Q 2069 2156 2228 2338 
Q 2531 2678 2651 2914 
Q 2772 3150 2772 3378 
Q 2772 3750 2511 3984 
Q 2250 4219 1831 4219 
Q 1534 4219 1204 4116 
Q 875 4013 500 3803 
L 500 4441 
Q 881 4594 1212 4672 
Q 1544 4750 1819 4750 
Q 2544 4750 2975 4387 
Q 3406 4025 3406 3419 
Q 3406 3131 3298 2873 
Q 3191 2616 2906 2266 
Q 2828 2175 2409 1742 
Q 1991 1309 1228 531 
z
" transform="scale(0.015625)"/>
      <path id="DejaVuSans-34" d="M 2419 4116 
L 825 1625 
L 2419 1625 
L 2419 4116 
z
M 2253 4666 
L 3047 4666 
L 3047 1625 
L 3713 1625 
L 3713 1100 
L 3047 1100 
L 3047 0 
L 2419 0 
L 2419 1100 
L 313 1100 
L 313 1709 
L 2253 4666 
z
" transform="scale(0.015625)"/>
     </defs>
     <use xlink:href="#DejaVuSans-2212"/>
     <use xlink:href="#DejaVuSans-32" transform="translate(83.789062 0)"/>
     <use xlink:href="#DejaVuSans-34" transform="translate(147.412109 0)"/>
     <use xlink:href="#DejaVuSans-20" transform="translate(211.035156 0)"/>
     <use xlink:href="#DejaVuSans-72" transform="translate(242.822266 0)"/>
     <use xlink:href="#DejaVuSans-6f" transform="translate(281.685547 0)"/>
     <use xlink:href="#DejaVuSans-77" transform="translate(342.867188 0)"/>
     <use xlink:href="#DejaVuSans-73" transform="translate(424.654297 0)"/>
    </g>
    <!-- —: 24 -->
    <g style="fill: #5a3d10" transform="translate(464.122125 255.571585) scale(0.072 -0.072)">
     <defs>
      <path id="DejaVuSans-2014" d="M 313 1978 
L 6088 1978 
L 6088 1528 
L 313 1528 
L 313 1978 
z
" transform="scale(0.015625)"/>
      <path id="DejaVuSans-3a" d="M 750 794 
L 1409 794 
L 1409 0 
L 750 0 
L 750 794 
z
M 750 3309 
L 1409 3309 
L 1409 2516 
L 750 2516 
L 750 3309 
z
" transform="scale(0.015625)"/>
     </defs>
     <use xlink:href="#DejaVuSans-2014"/>
     <use xlink:href="#DejaVuSans-3a" transform="translate(100 0)"/>
     <use xlink:href="#DejaVuSans-20" transform="translate(133.691406 0)"/>
     <use xlink:href="#DejaVuSans-32" transform="translate(165.478516 0)"/>
     <use xlink:href="#DejaVuSans-34" transform="translate(229.101562 0)"/>
    </g>
   </g>
   <g id="text_8">
    <!-- Missingness pass -->
    <g style="fill: #1a1a1a" transform="translate(142.598594 334.34959) scale(0.1 -0.1)">
     <defs>
      <path id="DejaVuSans-Bold-4d" d="M 588 4666 
L 2119 4666 
L 3181 2169 
L 4250 4666 
L 5778 4666 
L 5778 0 
L 4641 0 
L 4641 3413 
L 3566 897 
L 2803 897 
L 1728 3413 
L 1728 0 
L 588 0 
L 588 4666 
z
" transform="scale(0.015625)"/>
     </defs>
     <use xlink:href="#DejaVuSans-Bold-4d"/>
     <use xlink:href="#DejaVuSans-Bold-69" transform="translate(99.511719 0)"/>
     <use xlink:href="#DejaVuSans-Bold-73" transform="translate(133.789062 0)"/>
     <use xlink:href="#DejaVuSans-Bold-73" transform="translate(193.310547 0)"/>
     <use xlink:href="#DejaVuSans-Bold-69" transform="translate(252.832031 0)"/>
     <use xlink:href="#DejaVuSans-Bold-6e" transform="translate(287.109375 0)"/>
     <use xlink:href="#DejaVuSans-Bold-67" transform="translate(358.300781 0)"/>
     <use xlink:href="#DejaVuSans-Bold-6e" transform="translate(429.882812 0)"/>
     <use xlink:href="#DejaVuSans-Bold-65" transform="translate(501.074219 0)"/>
     <use xlink:href="#DejaVuSans-Bold-73" transform="translate(568.896484 0)"/>
     <use xlink:href="#DejaVuSans-Bold-73" transform="translate(628.417969 0)"/>
     <use xlink:href="#DejaVuSans-Bold-20" transform="translate(687.939453 0)"/>
     <use xlink:href="#DejaVuSans-Bold-70" transform="translate(722.753906 0)"/>
     <use xlink:href="#DejaVuSans-Bold-61" transform="translate(794.335938 0)"/>
     <use xlink:href="#DejaVuSans-Bold-73" transform="translate(861.816406 0)"/>
     <use xlink:href="#DejaVuSans-Bold-73" transform="translate(921.337891 0)"/>
    </g>
   </g>
   <g id="text_9">
    <!-- 5,878 rows  ×  15 cols -->
    <g style="fill: #1a1a1a" transform="translate(144.125664 360.263801) scale(0.085 -0.085)">
     <defs>
      <path id="DejaVuSans-38" d="M 2034 2216 
Q 1584 2216 1326 1975 
Q 1069 1734 1069 1313 
Q 1069 891 1326 650 
Q 1584 409 2034 409 
Q 2484 409 2743 651 
Q 3003 894 3003 1313 
Q 3003 1734 2745 1975 
Q 2488 2216 2034 2216 
z
M 1403 2484 
Q 997 2584 770 2862 
Q 544 3141 544 3541 
Q 544 4100 942 4425 
Q 1341 4750 2034 4750 
Q 2731 4750 3128 4425 
Q 3525 4100 3525 3541 
Q 3525 3141 3298 2862 
Q 3072 2584 2669 2484 
Q 3125 2378 3379 2068 
Q 3634 1759 3634 1313 
Q 3634 634 3220 271 
Q 2806 -91 2034 -91 
Q 1263 -91 848 271 
Q 434 634 434 1313 
Q 434 1759 690 2068 
Q 947 2378 1403 2484 
z
M 1172 3481 
Q 1172 3119 1398 2916 
Q 1625 2713 2034 2713 
Q 2441 2713 2670 2916 
Q 2900 3119 2900 3481 
Q 2900 3844 2670 4047 
Q 2441 4250 2034 4250 
Q 1625 4250 1398 4047 
Q 1172 3844 1172 3481 
z
" transform="scale(0.015625)"/>
     </defs>
     <use xlink:href="#DejaVuSans-35"/>
     <use xlink:href="#DejaVuSans-2c" transform="translate(63.623047 0)"/>
     <use xlink:href="#DejaVuSans-38" transform="translate(95.410156 0)"/>
     <use xlink:href="#DejaVuSans-37" transform="translate(159.033203 0)"/>
     <use xlink:href="#DejaVuSans-38" transform="translate(222.65625 0)"/>
     <use xlink:href="#DejaVuSans-20" transform="translate(286.279297 0)"/>
     <use xlink:href="#DejaVuSans-72" transform="translate(318.066406 0)"/>
     <use xlink:href="#DejaVuSans-6f" transform="translate(356.929688 0)"/>
     <use xlink:href="#DejaVuSans-77" transform="translate(418.111328 0)"/>
     <use xlink:href="#DejaVuSans-73" transform="translate(499.898438 0)"/>
     <use xlink:href="#DejaVuSans-20" transform="translate(551.998047 0)"/>
     <use xlink:href="#DejaVuSans-20" transform="translate(583.785156 0)"/>
     <use xlink:href="#DejaVuSans-d7" transform="translate(615.572266 0)"/>
     <use xlink:href="#DejaVuSans-20" transform="translate(699.361328 0)"/>
     <use xlink:href="#DejaVuSans-20" transform="translate(731.148438 0)"/>
     <use xlink:href="#DejaVuSans-31" transform="translate(762.935547 0)"/>
     <use xlink:href="#DejaVuSans-35" transform="translate(826.558594 0)"/>
     <use xlink:href="#DejaVuSans-20" transform="translate(890.181641 0)"/>
     <use xlink:href="#DejaVuSans-63" transform="translate(921.96875 0)"/>
     <use xlink:href="#DejaVuSans-6f" transform="translate(976.949219 0)"/>
     <use xlink:href="#DejaVuSans-6c" transform="translate(1038.130859 0)"/>
     <use xlink:href="#DejaVuSans-73" transform="translate(1065.914062 0)"/>
    </g>
   </g>
   <g id="text_10">
    <!-- −98 rows -->
    <g style="fill: #5a3d10" transform="translate(457.497 340.20434) scale(0.072 -0.072)">
     <use xlink:href="#DejaVuSans-2212"/>
     <use xlink:href="#DejaVuSans-39" transform="translate(83.789062 0)"/>
     <use xlink:href="#DejaVuSans-38" transform="translate(147.412109 0)"/>
     <use xlink:href="#DejaVuSans-20" transform="translate(211.035156 0)"/>
     <use xlink:href="#DejaVuSans-72" transform="translate(242.822266 0)"/>
     <use xlink:href="#DejaVuSans-6f" transform="translate(281.685547 0)"/>
     <use xlink:href="#DejaVuSans-77" transform="translate(342.867188 0)"/>
     <use xlink:href="#DejaVuSans-73" transform="translate(424.654297 0)"/>
    </g>
    <!-- native_country: 98 -->
    <g style="fill: #5a3d10" transform="translate(441.171 349.36094) scale(0.072 -0.072)">
     <defs>
      <path id="DejaVuSans-6e" d="M 3513 2113 
L 3513 0 
L 2938 0 
L 2938 2094 
Q 2938 2591 2744 2837 
Q 2550 3084 2163 3084 
Q 1697 3084 1428 2787 
Q 1159 2491 1159 1978 
L 1159 0 
L 581 0 
L 581 3500 
L 1159 3500 
L 1159 2956 
Q 1366 3272 1645 3428 
Q 1925 3584 2291 3584 
Q 2894 3584 3203 3211 
Q 3513 2838 3513 2113 
z
" transform="scale(0.015625)"/>
      <path id="DejaVuSans-61" d="M 2194 1759 
Q 1497 1759 1228 1600 
Q 959 1441 959 1056 
Q 959 750 1161 570 
Q 1363 391 1709 391 
Q 2188 391 2477 730 
Q 2766 1069 2766 1631 
L 2766 1759 
L 2194 1759 
z
M 3341 1997 
L 3341 0 
L 2766 0 
L 2766 531 
Q 2569 213 2275 61 
Q 1981 -91 1556 -91 
Q 1019 -91 701 211 
Q 384 513 384 1019 
Q 384 1609 779 1909 
Q 1175 2209 1959 2209 
L 2766 2209 
L 2766 2266 
Q 2766 2663 2505 2880 
Q 2244 3097 1772 3097 
Q 1472 3097 1187 3025 
Q 903 2953 641 2809 
L 641 3341 
Q 956 3463 1253 3523 
Q 1550 3584 1831 3584 
Q 2591 3584 2966 3190 
Q 3341 2797 3341 1997 
z
" transform="scale(0.015625)"/>
      <path id="DejaVuSans-74" d="M 1172 4494 
L 1172 3500 
L 2356 3500 
L 2356 3053 
L 1172 3053 
L 1172 1153 
Q 1172 725 1289 603 
Q 1406 481 1766 481 
L 2356 481 
L 2356 0 
L 1766 0 
Q 1100 0 847 248 
Q 594 497 594 1153 
L 594 3053 
L 172 3053 
L 172 3500 
L 594 3500 
L 594 4494 
L 1172 4494 
z
" transform="scale(0.015625)"/>
      <path id="DejaVuSans-69" d="M 603 3500 
L 1178 3500 
L 1178 0 
L 603 0 
L 603 3500 
z
M 603 4863 
L 1178 4863 
L 1178 4134 
L 603 4134 
L 603 4863 
z
" transform="scale(0.015625)"/>
      <path id="DejaVuSans-76" d="M 191 3500 
L 800 3500 
L 1894 563 
L 2988 3500 
L 3597 3500 
L 2284 0 
L 1503 0 
L 191 3500 
z
" transform="scale(0.015625)"/>
      <path id="DejaVuSans-65" d="M 3597 1894 
L 3597 1613 
L 953 1613 
Q 991 1019 1311 708 
Q 1631 397 2203 397 
Q 2534 397 2845 478 
Q 3156 559 3463 722 
L 3463 178 
Q 3153 47 2828 -22 
Q 2503 -91 2169 -91 
Q 1331 -91 842 396 
Q 353 884 353 1716 
Q 353 2575 817 3079 
Q 1281 3584 2069 3584 
Q 2775 3584 3186 3129 
Q 3597 2675 3597 1894 
z
M 3022 2063 
Q 3016 2534 2758 2815 
Q 2500 3097 2075 3097 
Q 1594 3097 1305 2825 
Q 1016 2553 972 2059 
L 3022 2063 
z
" transform="scale(0.015625)"/>
      <path id="DejaVuSans-5f" d="M 3263 -1063 
L 3263 -1509 
L -63 -1509 
L -63 -1063 
L 3263 -1063 
z
" transform="scale(0.015625)"/>
      <path id="DejaVuSans-75" d="M 544 1381 
L 544 3500 
L 1119 3500 
L 1119 1403 
Q 1119 906 1312 657 
Q 1506 409 1894 409 
Q 2359 409 2629 706 
Q 2900 1003 2900 1516 
L 2900 3500 
L 3475 3500 
L 3475 0 
L 2900 0 
L 2900 538 
Q 2691 219 2414 64 
Q 2138 -91 1772 -91 
Q 1169 -91 856 284 
Q 544 659 544 1381 
z
M 1991 3584 
L 1991 3584 
z
" transform="scale(0.015625)"/>
      <path id="DejaVuSans-79" d="M 2059 -325 
Q 1816 -950 1584 -1140 
Q 1353 -1331 966 -1331 
L 506 -1331 
L 506 -850 
L 844 -850 
Q 1081 -850 1212 -737 
Q 1344 -625 1503 -206 
L 1606 56 
L 191 3500 
L 800 3500 
L 1894 763 
L 2988 3500 
L 3597 3500 
L 2059 -325 
z
" transform="scale(0.015625)"/>
     </defs>
     <use xlink:href="#DejaVuSans-6e"/>
     <use xlink:href="#DejaVuSans-61" transform="translate(63.378906 0)"/>
     <use xlink:href="#DejaVuSans-74" transform="translate(124.658203 0)"/>
     <use xlink:href="#DejaVuSans-69" transform="translate(163.867188 0)"/>
     <use xlink:href="#DejaVuSans-76" transform="translate(191.650391 0)"/>
     <use xlink:href="#DejaVuSans-65" transform="translate(250.830078 0)"/>
     <use xlink:href="#DejaVuSans-5f" transform="translate(312.353516 0)"/>
     <use xlink:href="#DejaVuSans-63" transform="translate(362.353516 0)"/>
     <use xlink:href="#DejaVuSans-6f" transform="translate(417.333984 0)"/>
     <use xlink:href="#DejaVuSans-75" transform="translate(478.515625 0)"/>
     <use xlink:href="#DejaVuSans-6e" transform="translate(541.894531 0)"/>
     <use xlink:href="#DejaVuSans-74" transform="translate(605.273438 0)"/>
     <use xlink:href="#DejaVuSans-72" transform="translate(644.482422 0)"/>
     <use xlink:href="#DejaVuSans-79" transform="translate(685.595703 0)"/>
     <use xlink:href="#DejaVuSans-3a" transform="translate(737.525391 0)"/>
     <use xlink:href="#DejaVuSans-20" transform="translate(771.216797 0)"/>
     <use xlink:href="#DejaVuSans-39" transform="translate(803.003906 0)"/>
     <use xlink:href="#DejaVuSans-38" transform="translate(866.626953 0)"/>
    </g>
   </g>
   <g id="text_11">
    <!-- Outlier detection -->
    <g style="fill: #1a1a1a" transform="translate(143.600156 428.278133) scale(0.1 -0.1)">
     <defs>
      <path id="DejaVuSans-Bold-4f" d="M 2719 3878 
Q 2169 3878 1866 3472 
Q 1563 3066 1563 2328 
Q 1563 1594 1866 1187 
Q 2169 781 2719 781 
Q 3272 781 3575 1187 
Q 3878 1594 3878 2328 
Q 3878 3066 3575 3472 
Q 3272 3878 2719 3878 
z
M 2719 4750 
Q 3844 4750 4481 4106 
Q 5119 3463 5119 2328 
Q 5119 1197 4481 553 
Q 3844 -91 2719 -91 
Q 1597 -91 958 553 
Q 319 1197 319 2328 
Q 319 3463 958 4106 
Q 1597 4750 2719 4750 
z
" transform="scale(0.015625)"/>
      <path id="DejaVuSans-Bold-72" d="M 3138 2547 
Q 2991 2616 2845 2648 
Q 2700 2681 2553 2681 
Q 2122 2681 1889 2404 
Q 1656 2128 1656 1613 
L 1656 0 
L 538 0 
L 538 3500 
L 1656 3500 
L 1656 2925 
Q 1872 3269 2151 3426 
Q 2431 3584 2822 3584 
Q 2878 3584 2943 3579 
Q 3009 3575 3134 3559 
L 3138 2547 
z
" transform="scale(0.015625)"/>
     </defs>
     <use xlink:href="#DejaVuSans-Bold-4f"/>
     <use xlink:href="#DejaVuSans-Bold-75" transform="translate(85.009766 0)"/>
     <use xlink:href="#DejaVuSans-Bold-74" transform="translate(156.201172 0)"/>
     <use xlink:href="#DejaVuSans-Bold-6c" transform="translate(204.003906 0)"/>
     <use xlink:href="#DejaVuSans-Bold-69" transform="translate(238.28125 0)"/>
     <use xlink:href="#DejaVuSans-Bold-65" transform="translate(272.558594 0)"/>
     <use xlink:href="#DejaVuSans-Bold-72" transform="translate(340.380859 0)"/>
     <use xlink:href="#DejaVuSans-Bold-20" transform="translate(389.697266 0)"/>
     <use xlink:href="#DejaVuSans-Bold-64" transform="translate(424.511719 0)"/>
     <use xlink:href="#DejaVuSans-Bold-65" transform="translate(496.09375 0)"/>
     <use xlink:href="#DejaVuSans-Bold-74" transform="translate(563.916016 0)"/>
     <use xlink:href="#DejaVuSans-Bold-65" transform="translate(611.71875 0)"/>
     <use xlink:href="#DejaVuSans-Bold-63" transform="translate(679.541016 0)"/>
     <use xlink:href="#DejaVuSans-Bold-74" transform="translate(738.818359 0)"/>
     <use xlink:href="#DejaVuSans-Bold-69" transform="translate(786.621094 0)"/>
     <use xlink:href="#DejaVuSans-Bold-6f" transform="translate(820.898438 0)"/>
     <use xlink:href="#DejaVuSans-Bold-6e" transform="translate(889.599609 0)"/>
    </g>
   </g>
   <g id="text_12">
    <!-- 5,878 rows  ×  15 cols -->
    <g style="fill: #1a1a1a" transform="translate(144.125664 454.153281) scale(0.085 -0.085)">
     <use xlink:href="#DejaVuSans-35"/>
     <use xlink:href="#DejaVuSans-2c" transform="translate(63.623047 0)"/>
     <use xlink:href="#DejaVuSans-38" transform="translate(95.410156 0)"/>
     <use xlink:href="#DejaVuSans-37" transform="translate(159.033203 0)"/>
     <use xlink:href="#DejaVuSans-38" transform="translate(222.65625 0)"/>
     <use xlink:href="#DejaVuSans-20" transform="translate(286.279297 0)"/>
     <use xlink:href="#DejaVuSans-72" transform="translate(318.066406 0)"/>
     <use xlink:href="#DejaVuSans-6f" transform="translate(356.929688 0)"/>
     <use xlink:href="#DejaVuSans-77" transform="translate(418.111328 0)"/>
     <use xlink:href="#DejaVuSans-73" transform="translate(499.898438 0)"/>
     <use xlink:href="#DejaVuSans-20" transform="translate(551.998047 0)"/>
     <use xlink:href="#DejaVuSans-20" transform="translate(583.785156 0)"/>
     <use xlink:href="#DejaVuSans-d7" transform="translate(615.572266 0)"/>
     <use xlink:href="#DejaVuSans-20" transform="translate(699.361328 0)"/>
     <use xlink:href="#DejaVuSans-20" transform="translate(731.148438 0)"/>
     <use xlink:href="#DejaVuSans-31" transform="translate(762.935547 0)"/>
     <use xlink:href="#DejaVuSans-35" transform="translate(826.558594 0)"/>
     <use xlink:href="#DejaVuSans-20" transform="translate(890.181641 0)"/>
     <use xlink:href="#DejaVuSans-63" transform="translate(921.96875 0)"/>
     <use xlink:href="#DejaVuSans-6f" transform="translate(976.949219 0)"/>
     <use xlink:href="#DejaVuSans-6c" transform="translate(1038.130859 0)"/>
     <use xlink:href="#DejaVuSans-73" transform="translate(1065.914062 0)"/>
    </g>
   </g>
   <g id="text_13">
    <!-- Clean dataset -->
    <g style="fill: #ffffff" transform="translate(152.716562 522.167613) scale(0.1 -0.1)">
     <use xlink:href="#DejaVuSans-Bold-43"/>
     <use xlink:href="#DejaVuSans-Bold-6c" transform="translate(73.388672 0)"/>
     <use xlink:href="#DejaVuSans-Bold-65" transform="translate(107.666016 0)"/>
     <use xlink:href="#DejaVuSans-Bold-61" transform="translate(175.488281 0)"/>
     <use xlink:href="#DejaVuSans-Bold-6e" transform="translate(242.96875 0)"/>
     <use xlink:href="#DejaVuSans-Bold-20" transform="translate(314.160156 0)"/>
     <use xlink:href="#DejaVuSans-Bold-64" transform="translate(348.974609 0)"/>
     <use xlink:href="#DejaVuSans-Bold-61" transform="translate(420.556641 0)"/>
     <use xlink:href="#DejaVuSans-Bold-74" transform="translate(488.037109 0)"/>
     <use xlink:href="#DejaVuSans-Bold-61" transform="translate(535.839844 0)"/>
     <use xlink:href="#DejaVuSans-Bold-73" transform="translate(603.320312 0)"/>
     <use xlink:href="#DejaVuSans-Bold-65" transform="translate(662.841797 0)"/>
     <use xlink:href="#DejaVuSans-Bold-74" transform="translate(730.664062 0)"/>
    </g>
   </g>
   <g id="text_14">
    <!-- 5,878 rows  ×  21 cols -->
    <g style="fill: #ffffff" transform="translate(144.125664 548.042761) scale(0.085 -0.085)">
     <use xlink:href="#DejaVuSans-35"/>
     <use xlink:href="#DejaVuSans-2c" transform="translate(63.623047 0)"/>
     <use xlink:href="#DejaVuSans-38" transform="translate(95.410156 0)"/>
     <use xlink:href="#DejaVuSans-37" transform="translate(159.033203 0)"/>
     <use xlink:href="#DejaVuSans-38" transform="translate(222.65625 0)"/>
     <use xlink:href="#DejaVuSans-20" transform="translate(286.279297 0)"/>
     <use xlink:href="#DejaVuSans-72" transform="translate(318.066406 0)"/>
     <use xlink:href="#DejaVuSans-6f" transform="translate(356.929688 0)"/>
     <use xlink:href="#DejaVuSans-77" transform="translate(418.111328 0)"/>
     <use xlink:href="#DejaVuSans-73" transform="translate(499.898438 0)"/>
     <use xlink:href="#DejaVuSans-20" transform="translate(551.998047 0)"/>
     <use xlink:href="#DejaVuSans-20" transform="translate(583.785156 0)"/>
     <use xlink:href="#DejaVuSans-d7" transform="translate(615.572266 0)"/>
     <use xlink:href="#DejaVuSans-20" transform="translate(699.361328 0)"/>
     <use xlink:href="#DejaVuSans-20" transform="translate(731.148438 0)"/>
     <use xlink:href="#DejaVuSans-32" transform="translate(762.935547 0)"/>
     <use xlink:href="#DejaVuSans-31" transform="translate(826.558594 0)"/>
     <use xlink:href="#DejaVuSans-20" transform="translate(890.181641 0)"/>
     <use xlink:href="#DejaVuSans-63" transform="translate(921.96875 0)"/>
     <use xlink:href="#DejaVuSans-6f" transform="translate(976.949219 0)"/>
     <use xlink:href="#DejaVuSans-6c" transform="translate(1038.130859 0)"/>
     <use xlink:href="#DejaVuSans-73" transform="translate(1065.914062 0)"/>
    </g>
   </g>
   <g id="text_15">
    <!-- DataClean Agent — cleaning flow for adult_sample.csv -->
    <g style="fill: #5b6b7a" transform="translate(201.762891 14.038594) scale(0.09 -0.09)">
     <defs>
      <path id="DejaVuSans-Oblique-44" d="M 1081 4666 
L 2438 4666 
Q 3519 4666 4070 4208 
Q 4622 3750 4622 2847 
Q 4622 2250 4412 1698 
Q 4203 1147 3834 769 
Q 3463 381 2891 190 
Q 2319 0 1538 0 
L 172 0 
L 1081 4666 
z
M 1613 4147 
L 909 519 
L 1734 519 
Q 2794 519 3375 1128 
Q 3956 1738 3956 2847 
Q 3956 3519 3581 3833 
Q 3206 4147 2406 4147 
L 1613 4147 
z
" transform="scale(0.015625)"/>
      <path id="DejaVuSans-Oblique-61" d="M 3438 1997 
L 3047 0 
L 2472 0 
L 2578 531 
Q 2325 219 2001 64 
Q 1678 -91 1281 -91 
Q 834 -91 548 182 
Q 263 456 263 884 
Q 263 1497 752 1853 
Q 1241 2209 2100 2209 
L 2900 2209 
L 2931 2363 
Q 2938 2388 2941 2417 
Q 2944 2447 2944 2509 
Q 2944 2788 2717 2942 
Q 2491 3097 2081 3097 
Q 1800 3097 1504 3025 
Q 1209 2953 897 2809 
L 997 3341 
Q 1322 3463 1633 3523 
Q 1944 3584 2234 3584 
Q 2853 3584 3176 3315 
Q 3500 3047 3500 2534 
Q 3500 2431 3484 2292 
Q 3469 2153 3438 1997 
z
M 2816 1759 
L 2241 1759 
Q 1534 1759 1195 1570 
Q 856 1381 856 984 
Q 856 709 1029 553 
Q 1203 397 1509 397 
Q 1978 397 2328 733 
Q 2678 1069 2791 1631 
L 2816 1759 
z
" transform="scale(0.015625)"/>
      <path id="DejaVuSans-Oblique-74" d="M 2706 3500 
L 2619 3053 
L 1472 3053 
L 1100 1153 
Q 1081 1047 1072 975 
Q 1063 903 1063 863 
Q 1063 663 1183 572 
Q 1303 481 1569 481 
L 2150 481 
L 2053 0 
L 1503 0 
Q 991 0 739 200 
Q 488 400 488 806 
Q 488 878 497 964 
Q 506 1050 525 1153 
L 897 3053 
L 409 3053 
L 500 3500 
L 978 3500 
L 1172 4494 
L 1747 4494 
L 1556 3500 
L 2706 3500 
z
" transform="scale(0.015625)"/>
      <path id="DejaVuSans-Oblique-43" d="M 4447 4306 
L 4319 3641 
Q 4019 3944 3683 4091 
Q 3347 4238 2956 4238 
Q 2422 4238 2017 3981 
Q 1613 3725 1319 3200 
Q 1131 2863 1032 2486 
Q 934 2109 934 1728 
Q 934 1091 1264 756 
Q 1594 422 2222 422 
Q 2656 422 3056 561 
Q 3456 700 3834 978 
L 3688 231 
Q 3316 72 2936 -9 
Q 2556 -91 2175 -91 
Q 1278 -91 773 396 
Q 269 884 269 1753 
Q 269 2309 461 2846 
Q 653 3384 1013 3828 
Q 1394 4300 1883 4525 
Q 2372 4750 3022 4750 
Q 3422 4750 3780 4639 
Q 4138 4528 4447 4306 
z
" transform="scale(0.015625)"/>
      <path id="DejaVuSans-Oblique-6c" d="M 1172 4863 
L 1747 4863 
L 800 0 
L 225 0 
L 1172 4863 
z
" transform="scale(0.015625)"/>
      <path id="DejaVuSans-Oblique-65" d="M 3078 2063 
Q 3088 2113 3092 2166 
Q 3097 2219 3097 2272 
Q 3097 2653 2873 2875 
Q 2650 3097 2266 3097 
Q 1838 3097 1509 2826 
Q 1181 2556 1013 2059 
L 3078 2063 
z
M 3578 1613 
L 903 1613 
Q 884 1494 878 1425 
Q 872 1356 872 1306 
Q 872 872 1139 634 
Q 1406 397 1894 397 
Q 2269 397 2603 481 
Q 2938 566 3225 728 
L 3116 159 
Q 2806 34 2476 -28 
Q 2147 -91 1806 -91 
Q 1078 -91 686 257 
Q 294 606 294 1247 
Q 294 1794 489 2264 
Q 684 2734 1063 3103 
Q 1306 3334 1642 3459 
Q 1978 3584 2356 3584 
Q 2950 3584 3301 3228 
Q 3653 2872 3653 2272 
Q 3653 2128 3634 1964 
Q 3616 1800 3578 1613 
z
" transform="scale(0.015625)"/>
      <path id="DejaVuSans-Oblique-6e" d="M 3566 2113 
L 3156 0 
L 2578 0 
L 2988 2091 
Q 3016 2238 3031 2350 
Q 3047 2463 3047 2528 
Q 3047 2791 2881 2937 
Q 2716 3084 2419 3084 
Q 1956 3084 1622 2776 
Q 1288 2469 1184 1941 
L 800 0 
L 225 0 
L 903 3500 
L 1478 3500 
L 1363 2950 
Q 1603 3253 1940 3418 
Q 2278 3584 2650 3584 
Q 3113 3584 3367 3334 
Q 3622 3084 3622 2631 
Q 3622 2519 3608 2391 
Q 3594 2263 3566 2113 
z
" transform="scale(0.015625)"/>
      <path id="DejaVuSans-Oblique-20" transform="scale(0.015625)"/>
      <path id="DejaVuSans-Oblique-41" d="M 2356 4666 
L 3072 4666 
L 3938 0 
L 3278 0 
L 3084 1197 
L 984 1197 
L 325 0 
L -341 0 
L 2356 4666 
z
M 2584 4044 
L 1275 1722 
L 2988 1722 
L 2584 4044 
z
" transform="scale(0.015625)"/>
      <path id="DejaVuSans-Oblique-67" d="M 3816 3500 
L 3219 434 
Q 3047 -456 2561 -893 
Q 2075 -1331 1253 -1331 
Q 950 -1331 690 -1286 
Q 431 -1241 206 -1147 
L 313 -588 
Q 525 -725 762 -790 
Q 1000 -856 1269 -856 
Q 1816 -856 2167 -557 
Q 2519 -259 2631 300 
L 2681 563 
Q 2441 288 2122 144 
Q 1803 0 1434 0 
Q 903 0 598 351 
Q 294 703 294 1319 
Q 294 1803 478 2267 
Q 663 2731 997 3091 
Q 1219 3328 1514 3456 
Q 1809 3584 2131 3584 
Q 2484 3584 2746 3420 
Q 3009 3256 3138 2956 
L 3238 3500 
L 3816 3500 
z
M 2950 2216 
Q 2950 2641 2750 2872 
Q 2550 3103 2181 3103 
Q 1953 3103 1747 3012 
Q 1541 2922 1394 2759 
Q 1156 2491 1023 2127 
Q 891 1763 891 1375 
Q 891 944 1092 712 
Q 1294 481 1672 481 
Q 2219 481 2584 976 
Q 2950 1472 2950 2216 
z
" transform="scale(0.015625)"/>
      <path id="DejaVuSans-Oblique-2014" d="M 356 1978 
L 6131 1978 
L 6044 1528 
L 269 1528 
L 356 1978 
z
" transform="scale(0.015625)"/>
      <path id="DejaVuSans-Oblique-63" d="M 3431 3366 
L 3316 2797 
Q 3109 2947 2876 3022 
Q 2644 3097 2394 3097 
Q 2119 3097 1870 3000 
Q 1622 2903 1453 2725 
Q 1184 2453 1037 2087 
Q 891 1722 891 1331 
Q 891 859 1127 628 
Q 1363 397 1844 397 
Q 2081 397 2348 469 
Q 2616 541 2906 684 
L 2797 116 
Q 2547 13 2283 -39 
Q 2019 -91 1741 -91 
Q 1044 -91 669 257 
Q 294 606 294 1253 
Q 294 1797 489 2255 
Q 684 2713 1069 3078 
Q 1331 3328 1684 3456 
Q 2038 3584 2456 3584 
Q 2700 3584 2940 3529 
Q 3181 3475 3431 3366 
z
" transform="scale(0.015625)"/>
      <path id="DejaVuSans-Oblique-69" d="M 1172 4863 
L 1747 4863 
L 1606 4134 
L 1031 4134 
L 1172 4863 
z
M 909 3500 
L 1484 3500 
L 800 0 
L 225 0 
L 909 3500 
z
" transform="scale(0.015625)"/>
      <path id="DejaVuSans-Oblique-66" d="M 3059 4863 
L 2969 4384 
L 2419 4384 
Q 2106 4384 1964 4261 
Q 1822 4138 1753 3809 
L 1691 3500 
L 2638 3500 
L 2553 3053 
L 1606 3053 
L 1013 0 
L 434 0 
L 1031 3053 
L 481 3053 
L 563 3500 
L 1113 3500 
L 1159 3744 
Q 1278 4363 1576 4613 
Q 1875 4863 2516 4863 
L 3059 4863 
z
" transform="scale(0.015625)"/>
      <path id="DejaVuSans-Oblique-6f" d="M 1625 -91 
Q 1009 -91 651 289 
Q 294 669 294 1325 
Q 294 1706 417 2101 
Q 541 2497 738 2766 
Q 1047 3184 1428 3384 
Q 1809 3584 2291 3584 
Q 2888 3584 3255 3212 
Q 3622 2841 3622 2241 
Q 3622 1825 3500 1412 
Q 3378 1000 3181 728 
Q 2875 309 2494 109 
Q 2113 -91 1625 -91 
z
M 891 1344 
Q 891 869 1089 633 
Q 1288 397 1691 397 
Q 2269 397 2648 901 
Q 3028 1406 3028 2181 
Q 3028 2634 2825 2865 
Q 2622 3097 2228 3097 
Q 1903 3097 1650 2945 
Q 1397 2794 1197 2484 
Q 1050 2253 970 1956 
Q 891 1659 891 1344 
z
" transform="scale(0.015625)"/>
      <path id="DejaVuSans-Oblique-77" d="M 544 3500 
L 1113 3500 
L 1259 684 
L 2566 3500 
L 3231 3500 
L 3425 684 
L 4666 3500 
L 5241 3500 
L 3641 0 
L 2969 0 
L 2797 2900 
L 1459 0 
L 781 0 
L 544 3500 
z
" transform="scale(0.015625)"/>
      <path id="DejaVuSans-Oblique-72" d="M 2853 2969 
Q 2766 3016 2653 3041 
Q 2541 3066 2413 3066 
Q 1953 3066 1609 2717 
Q 1266 2369 1153 1784 
L 800 0 
L 225 0 
L 909 3500 
L 1484 3500 
L 1375 2956 
Q 1603 3259 1920 3421 
Q 2238 3584 2597 3584 
Q 2691 3584 2781 3573 
Q 2872 3563 2963 3538 
L 2853 2969 
z
" transform="scale(0.015625)"/>
      <path id="DejaVuSans-Oblique-64" d="M 2675 525 
Q 2444 222 2128 65 
Q 1813 -91 1428 -91 
Q 903 -91 598 267 
Q 294 625 294 1247 
Q 294 1766 478 2236 
Q 663 2706 1013 3078 
Q 1244 3325 1534 3454 
Q 1825 3584 2144 3584 
Q 2481 3584 2739 3421 
Q 2997 3259 3138 2956 
L 3513 4863 
L 4091 4863 
L 3144 0 
L 2566 0 
L 2675 525 
z
M 891 1350 
Q 891 897 1095 644 
Q 1300 391 1663 391 
Q 1931 391 2161 520 
Q 2391 650 2566 903 
Q 2750 1166 2856 1509 
Q 2963 1853 2963 2188 
Q 2963 2622 2758 2865 
Q 2553 3109 2194 3109 
Q 1922 3109 1687 2981 
Q 1453 2853 1288 2613 
Q 1106 2353 998 2009 
Q 891 1666 891 1350 
z
" transform="scale(0.015625)"/>
      <path id="DejaVuSans-Oblique-75" d="M 428 1388 
L 838 3500 
L 1416 3500 
L 1006 1409 
Q 975 1256 961 1147 
Q 947 1038 947 966 
Q 947 700 1109 554 
Q 1272 409 1569 409 
Q 2031 409 2368 721 
Q 2706 1034 2809 1563 
L 3194 3500 
L 3769 3500 
L 3091 0 
L 2516 0 
L 2631 550 
Q 2388 244 2052 76 
Q 1716 -91 1338 -91 
Q 878 -91 622 161 
Q 366 413 366 863 
Q 366 956 381 1097 
Q 397 1238 428 1388 
z
" transform="scale(0.015625)"/>
      <path id="DejaVuSans-Oblique-5f" d="M 3263 -1063 
L 3263 -1509 
L -63 -1509 
L -63 -1063 
L 3263 -1063 
z
" transform="scale(0.015625)"/>
      <path id="DejaVuSans-Oblique-73" d="M 3200 3397 
L 3091 2853 
Q 2863 2978 2609 3040 
Q 2356 3103 2088 3103 
Q 1634 3103 1373 2948 
Q 1113 2794 1113 2528 
Q 1113 2219 1719 2053 
Q 1766 2041 1788 2034 
L 1972 1978 
Q 2547 1819 2739 1644 
Q 2931 1469 2931 1166 
Q 2931 609 2489 259 
Q 2047 -91 1331 -91 
Q 1053 -91 747 -37 
Q 441 16 72 128 
L 184 722 
Q 500 559 806 475 
Q 1113 391 1394 391 
Q 1816 391 2080 572 
Q 2344 753 2344 1031 
Q 2344 1331 1650 1516 
L 1591 1531 
L 1394 1581 
Q 956 1697 753 1886 
Q 550 2075 550 2369 
Q 550 2928 970 3256 
Q 1391 3584 2113 3584 
Q 2397 3584 2667 3537 
Q 2938 3491 3200 3397 
z
" transform="scale(0.015625)"/>
      <path id="DejaVuSans-Oblique-6d" d="M 5747 2113 
L 5338 0 
L 4763 0 
L 5166 2094 
Q 5191 2228 5203 2325 
Q 5216 2422 5216 2491 
Q 5216 2772 5059 2928 
Q 4903 3084 4622 3084 
Q 4203 3084 3875 2770 
Q 3547 2456 3450 1953 
L 3066 0 
L 2491 0 
L 2900 2094 
Q 2925 2209 2937 2307 
Q 2950 2406 2950 2484 
Q 2950 2769 2794 2926 
Q 2638 3084 2363 3084 
Q 1938 3084 1609 2770 
Q 1281 2456 1184 1953 
L 800 0 
L 225 0 
L 909 3500 
L 1484 3500 
L 1375 2956 
Q 1609 3263 1923 3423 
Q 2238 3584 2597 3584 
Q 2978 3584 3223 3384 
Q 3469 3184 3519 2828 
Q 3781 3197 4126 3390 
Q 4472 3584 4856 3584 
Q 5306 3584 5551 3325 
Q 5797 3066 5797 2591 
Q 5797 2488 5784 2364 
Q 5772 2241 5747 2113 
z
" transform="scale(0.015625)"/>
      <path id="DejaVuSans-Oblique-70" d="M 3175 2156 
Q 3175 2616 2975 2859 
Q 2775 3103 2400 3103 
Q 2144 3103 1911 2972 
Q 1678 2841 1497 2591 
Q 1319 2344 1212 1994 
Q 1106 1644 1106 1300 
Q 1106 863 1306 627 
Q 1506 391 1875 391 
Q 2147 391 2380 519 
Q 2613 647 2778 891 
Q 2956 1147 3065 1494 
Q 3175 1841 3175 2156 
z
M 1394 2969 
Q 1625 3272 1939 3428 
Q 2253 3584 2638 3584 
Q 3175 3584 3472 3232 
Q 3769 2881 3769 2247 
Q 3769 1728 3584 1258 
Q 3400 788 3053 416 
Q 2822 169 2531 39 
Q 2241 -91 1919 -91 
Q 1547 -91 1294 64 
Q 1041 219 916 525 
L 556 -1331 
L -19 -1331 
L 922 3500 
L 1497 3500 
L 1394 2969 
z
" transform="scale(0.015625)"/>
      <path id="DejaVuSans-Oblique-2e" d="M 525 794 
L 1184 794 
L 1031 0 
L 372 0 
L 525 794 
z
" transform="scale(0.015625)"/>
      <path id="DejaVuSans-Oblique-76" d="M 459 3500 
L 1069 3500 
L 1581 525 
L 3256 3500 
L 3866 3500 
L 1875 0 
L 1100 0 
L 459 3500 
z
" transform="scale(0.015625)"/>
     </defs>
     <use xlink:href="#DejaVuSans-Oblique-44"/>
     <use xlink:href="#DejaVuSans-Oblique-61" transform="translate(77.001953 0)"/>
     <use xlink:href="#DejaVuSans-Oblique-74" transform="translate(138.28125 0)"/>
     <use xlink:href="#DejaVuSans-Oblique-61" transform="translate(177.490234 0)"/>
     <use xlink:href="#DejaVuSans-Oblique-43" transform="translate(238.769531 0)"/>
     <use xlink:href="#DejaVuSans-Oblique-6c" transform="translate(308.59375 0)"/>
     <use xlink:href="#DejaVuSans-Oblique-65" transform="translate(336.376953 0)"/>
     <use xlink:href="#DejaVuSans-Oblique-61" transform="translate(397.900391 0)"/>
     <use xlink:href="#DejaVuSans-Oblique-6e" transform="translate(459.179688 0)"/>
     <use xlink:href="#DejaVuSans-Oblique-20" transform="translate(522.558594 0)"/>
     <use xlink:href="#DejaVuSans-Oblique-41" transform="translate(554.345703 0)"/>
     <use xlink:href="#DejaVuSans-Oblique-67" transform="translate(622.753906 0)"/>
     <use xlink:href="#DejaVuSans-Oblique-65" transform="translate(686.230469 0)"/>
     <use xlink:href="#DejaVuSans-Oblique-6e" transform="translate(747.753906 0)"/>
     <use xlink:href="#DejaVuSans-Oblique-74" transform="translate(811.132812 0)"/>
     <use xlink:href="#DejaVuSans-Oblique-20" transform="translate(850.341797 0)"/>
     <use xlink:href="#DejaVuSans-Oblique-2014" transform="translate(882.128906 0)"/>
     <use xlink:href="#DejaVuSans-Oblique-20" transform="translate(982.128906 0)"/>
     <use xlink:href="#DejaVuSans-Oblique-63" transform="translate(1013.916016 0)"/>
     <use xlink:href="#DejaVuSans-Oblique-6c" transform="translate(1068.896484 0)"/>
     <use xlink:href="#DejaVuSans-Oblique-65" transform="translate(1096.679688 0)"/>
     <use xlink:href="#DejaVuSans-Oblique-61" transform="translate(1158.203125 0)"/>
     <use xlink:href="#DejaVuSans-Oblique-6e" transform="translate(1219.482422 0)"/>
     <use xlink:href="#DejaVuSans-Oblique-69" transform="translate(1282.861328 0)"/>
     <use xlink:href="#DejaVuSans-Oblique-6e" transform="translate(1310.644531 0)"/>
     <use xlink:href="#DejaVuSans-Oblique-67" transform="translate(1374.023438 0)"/>
     <use xlink:href="#DejaVuSans-Oblique-20" transform="translate(1437.5 0)"/>
     <use xlink:href="#DejaVuSans-Oblique-66" transform="translate(1469.287109 0)"/>
     <use xlink:href="#DejaVuSans-Oblique-6c" transform="translate(1504.492188 0)"/>
     <use xlink:href="#DejaVuSans-Oblique-6f" transform="translate(1532.275391 0)"/>
     <use xlink:href="#DejaVuSans-Oblique-77" transform="translate(1593.457031 0)"/>
     <use xlink:href="#DejaVuSans-Oblique-20" transform="translate(1675.244141 0)"/>
     <use xlink:href="#DejaVuSans-Oblique-66" transform="translate(1707.03125 0)"/>
     <use xlink:href="#DejaVuSans-Oblique-6f" transform="translate(1742.236328 0)"/>
     <use xlink:href="#DejaVuSans-Oblique-72" transform="translate(1803.417969 0)"/>
     <use xlink:href="#DejaVuSans-Oblique-20" transform="translate(1844.53125 0)"/>
     <use xlink:href="#DejaVuSans-Oblique-61" transform="translate(1876.318359 0)"/>
     <use xlink:href="#DejaVuSans-Oblique-64" transform="translate(1937.597656 0)"/>
     <use xlink:href="#DejaVuSans-Oblique-75" transform="translate(2001.074219 0)"/>
     <use xlink:href="#DejaVuSans-Oblique-6c" transform="translate(2064.453125 0)"/>
     <use xlink:href="#DejaVuSans-Oblique-74" transform="translate(2092.236328 0)"/>
     <use xlink:href="#DejaVuSans-Oblique-5f" transform="translate(2131.445312 0)"/>
     <use xlink:href="#DejaVuSans-Oblique-73" transform="translate(2181.445312 0)"/>
     <use xlink:href="#DejaVuSans-Oblique-61" transform="translate(2233.544922 0)"/>
     <use xlink:href="#DejaVuSans-Oblique-6d" transform="translate(2294.824219 0)"/>
     <use xlink:href="#DejaVuSans-Oblique-70" transform="translate(2392.236328 0)"/>
     <use xlink:href="#DejaVuSans-Oblique-6c" transform="translate(2455.712891 0)"/>
     <use xlink:href="#DejaVuSans-Oblique-65" transform="translate(2483.496094 0)"/>
     <use xlink:href="#DejaVuSans-Oblique-2e" transform="translate(2545.019531 0)"/>
     <use xlink:href="#DejaVuSans-Oblique-63" transform="translate(2576.806641 0)"/>
     <use xlink:href="#DejaVuSans-Oblique-73" transform="translate(2631.787109 0)"/>
     <use xlink:href="#DejaVuSans-Oblique-76" transform="translate(2683.886719 0)"/>
    </g>
   </g>
  </g>
 </g>
 <defs>
  <clipPath id="pe8a146bb87">
   <rect x="7.2" y="14.282835" width="636" height="563.33688"/>
  </clipPath>
 </defs>
</svg>
